<svg width="24" height="24" viewBox="0 0 24 24" fill="none" xmlns="http://www.w3.org/2000/svg">
<path d="M13.1029 14C14.7629 14 16.1029 12.66 16.1029 11V5C16.1029 3.34 14.7629 2 13.1029 2C11.4429 2 10.1029 3.34 10.1029 5V11C10.1029 12.66 11.4429 14 13.1029 14Z" fill="#FF951D"/>
<path d="M18.1029 11C18.1029 13.76 15.8629 16 13.1029 16C10.3429 16 8.10291 13.76 8.10291 11H6.10291C6.10291 14.53 8.7129 17.43 12.1029 17.92V21H14.1029V17.92C17.4929 17.43 20.1029 14.53 20.1029 11H18.1029Z" fill="#FF951D"/>
</svg>
