<svg width="18" height="18" viewBox="0 0 18 18" fill="none" xmlns="http://www.w3.org/2000/svg">
<path d="M9 1.22656C4.70906 1.22656 1.22656 4.70906 1.22656 9C1.22656 13.2909 4.70906 16.7734 9 16.7734C13.2909 16.7734 16.7734 13.2909 16.7734 9C16.7734 4.70906 13.2909 1.22656 9 1.22656ZM9 15.2188C5.57191 15.2188 2.78125 12.4281 2.78125 9C2.78125 5.57191 5.57191 2.78125 9 2.78125C12.4281 2.78125 15.2188 5.57191 15.2188 9C15.2188 12.4281 12.4281 15.2188 9 15.2188ZM9.69184 8.30039C8.30816 7.84176 7.63965 7.55414 7.63965 6.82344C7.63965 6.03055 8.5025 5.74293 9.04664 5.74293C10.065 5.74293 10.4381 6.5125 10.5236 6.78457L11.7518 6.26375C11.6352 5.92172 11.1144 4.77902 9.68406 4.53027V3.55859H8.32371V4.53805C6.30262 4.97336 6.28707 6.75348 6.28707 6.83898C6.28707 8.60355 8.03609 9.10106 8.89117 9.41199C10.1194 9.84731 10.6635 10.2438 10.6635 10.99C10.6635 11.8684 9.8473 12.2415 9.12437 12.2415C7.70961 12.2415 7.30539 10.7879 7.25875 10.6169L5.96836 11.1377C6.45809 12.8401 7.7407 13.2987 8.31594 13.4386V14.4414H9.67629V13.4775C10.0805 13.4075 12.0239 13.0189 12.0239 10.9745C12.0316 9.89394 11.5575 8.94559 9.69184 8.30039Z" fill="#808080"/>
</svg>
