<svg width="24" height="24" viewBox="0 0 24 24" fill="none" xmlns="http://www.w3.org/2000/svg">
<path d="M15.5 13.9995H14.71L14.43 13.7295C15.41 12.5895 16 11.1095 16 9.49951C16 5.90951 13.09 2.99951 9.5 2.99951C5.91 2.99951 3 5.90951 3 9.49951C3 13.0895 5.91 15.9995 9.5 15.9995C11.11 15.9995 12.59 15.4095 13.73 14.4295L14 14.7095V15.4995L19 20.4895L20.49 18.9995L15.5 13.9995ZM9.5 13.9995C7.01 13.9995 5 11.9895 5 9.49951C5 7.00951 7.01 4.99951 9.5 4.99951C11.99 4.99951 14 7.00951 14 9.49951C14 11.9895 11.99 13.9995 9.5 13.9995Z" fill="white"/>
</svg>
